<?xml version="1.0" encoding="utf-8"?>
<!-- Generator: Adobe Illustrator 16.0.3, SVG Export Plug-In . SVG Version: 6.00 Build 0)  -->
<!DOCTYPE svg PUBLIC "-//W3C//DTD SVG 1.1//EN" "http://www.w3.org/Graphics/SVG/1.1/DTD/svg11.dtd">
<svg version="1.1" xmlns="http://www.w3.org/2000/svg" xmlns:xlink="http://www.w3.org/1999/xlink" x="0px" y="0px"
	 width="621.303px" height="89.179px" viewBox="0 0 621.303 89.179" enable-background="new 0 0 621.303 89.179"
	 xml:space="preserve">
<symbol  id="Loss" viewBox="-2.5 -10 5 20">
	<polygon fill="none" points="2.5,-10 -2.5,-10 -2.5,10 2.5,10 	"/>
	<polygon fill="#00B4E1" points="2.5,-10 -2.5,-10 -2.5,3 2.5,3 	"/>
</symbol>
<symbol  id="Null" viewBox="-2.5 -10 5 20">
	<polygon fill="none" points="2.5,-10 -2.5,-10 -2.5,10 2.5,10 	"/>
	<polygon fill="#AAAFB4" points="2.5,-0.5 -2.5,-0.5 -2.5,0.5 2.5,0.5 	"/>
</symbol>
<symbol  id="Win" viewBox="-2.5 -10 5 20">
	<polygon fill="none" points="2.5,-10 -2.5,-10 -2.5,10 2.5,10 	"/>
	<polygon fill="#83BE40" points="2.5,-3 -2.5,-3 -2.5,10 2.5,10 	"/>
</symbol>
<g id="Scan">
</g>
<g id="Main">
	<g>
		<path fill="#FFFFFF" d="M342.885,58.353c7.59,0,13.764-6.176,13.764-13.763c0-7.588-6.174-13.764-13.764-13.764
			c-7.586,0-13.764,6.176-13.764,13.764C329.121,52.177,335.299,58.353,342.885,58.353z"/>
		<path fill="#FFFFFF" d="M275.168,40.738c0-6.075-4.928-11.009-11.006-11.009h-3.303v22.021h3.303
			C270.24,51.751,275.168,46.815,275.168,40.738z"/>
		<path fill="#FFFFFF" d="M588.273,40.738c0-6.075-4.932-11.009-11.01-11.009h-3.301v22.021h3.301
			C583.342,51.751,588.273,46.815,588.273,40.738z"/>
		<path fill="#FFFFFF" d="M0,89.179h621.303V0H0V89.179z M557.447,16.519h23.119c13.377,0,24.225,10.843,24.225,24.22
			c0,13.378-10.848,24.223-24.225,24.223h-6.604v7.707h-16.516V16.519z M536.531,16.515h16.516V72.66h-16.516V16.515z
			 M480.463,16.515h16.514v21.47h18.639v-21.47h16.516V72.66h-16.516V51.194h-18.639V72.66h-16.514V16.515z M456.609,52.737
			l-0.221-0.067l-4.523-1.213l-3.48-0.937l-1.75-0.46l-0.041-0.011c-4.564-1.406-8.42-4.028-11.025-7.397
			c-2.268-2.93-3.586-6.419-3.586-10.175c0-1.143,0.123-2.258,0.35-3.333c1.885-8.73,10.986-15.371,21.967-15.382h0.033
			c9.115,0.011,17.076,3.501,21.533,8.73l-11.592,11.759l-0.043,0.043c-2.051-2.399-5.701-4.006-9.898-4.017h-0.033
			c-3.381,0.011-5.254,1.519-5.736,2.199c0.318,0.454,1.256,1.275,2.842,1.774c0.256,0.087,0.535,0.152,0.834,0.22l3.895,1.043
			l3.748,1.006l1.863,0.492c4.225,1.326,7.895,3.626,10.576,6.587c3.037,3.322,4.832,7.484,4.832,11.998
			c0,0.871-0.063,1.738-0.209,2.579c-1.494,9.732-11.426,17.239-23.461,17.239h-0.031c-7.178,0-13.617-2.39-17.988-6.153
			c-1.664-1.432-3.027-3.074-4.035-4.858l14.063-8.715c0.23,0.263,0.496,0.515,0.773,0.756c1.748,1.497,4.314,2.455,7.188,2.455
			h0.031c4.547,0,7.16-2.508,7.16-3.303C460.643,55.016,459.209,53.476,456.609,52.737z M376.461,16.515h16.516l18.643,27.051
			V16.515h16.516V72.66h-16.516l-18.643-27.047V72.66h-16.516V16.515z M342.885,14.312c16.723,0,30.275,13.554,30.275,30.278
			c0,16.724-13.553,30.277-30.275,30.277s-30.281-13.554-30.281-30.277C312.604,27.865,326.162,14.312,342.885,14.312z
			 M293.891,16.515h16.518V72.66h-16.518V16.515z M244.342,16.519h23.119c13.381,0,24.225,10.843,24.225,24.22
			c0,13.378-10.844,24.223-24.225,24.223h-6.602v7.707h-16.518V16.519z M180.014,16.519h16.514l13.455,23.206l13.443-23.206h16.516
			v56.149h-16.516V49.459l-3.906,6.738l-5.078,8.764h-8.93l-5.078-8.764l-3.906-6.738v23.209h-16.514V16.519z M125.047,16.515
			h16.512v32.524c0,5.129,4.191,9.313,9.314,9.313c5.141,0,9.332-4.185,9.332-9.313c-0.277-0.841,0-32.524,0-32.524h16.514v32.524
			c0,14.254-11.574,25.828-25.846,25.828c-14.256,0-25.826-11.574-25.826-25.828V16.515z M70.078,16.515h16.514v21.47h18.639v-21.47
			h16.516V72.66H105.23V51.194H86.592V72.66H70.078V16.515z M25.078,23.196c5.471-5.482,13.049-8.885,21.406-8.885
			c8.344,0,15.92,3.402,21.391,8.885L56.213,34.858c-2.494-2.489-5.934-4.032-9.729-4.032c-3.813,0-7.26,1.543-9.734,4.043
			c-2.486,2.487-4.029,5.931-4.029,9.721c0,3.809,1.543,7.243,4.029,9.73c2.484,2.489,5.934,4.032,9.734,4.032
			c3.795,0,7.223-1.543,9.717-4.032l11.674,11.673c-5.482,5.484-13.047,8.874-21.391,8.874c-8.357,0-15.918-3.39-21.406-8.874
			c-5.482-5.485-8.871-13.059-8.871-21.403C16.207,36.244,19.596,28.682,25.078,23.196z"/>
	</g>
</g>
</svg>
